<svg aria-hidden="true" style="position: absolute; width: 0; height: 0; overflow: hidden;" version="1.1" xmlns="http://www.w3.org/2000/svg" xmlns:xlink="http://www.w3.org/1999/xlink">
<defs>
<symbol id="icon-email-200" viewBox="0 0 32 32">
<path d="M27.39 26h-22.78c-0.008 0-0.018 0-0.028 0-1.553 0-2.814-1.25-2.832-2.798l-0-0.002v-6.2c0-0.552 0.448-1 1-1s1 0.448 1 1v0 6.2c0.018 0.446 0.383 0.8 0.832 0.8 0.010 0 0.020-0 0.030-0l-0.001 0h22.78c0.008 0 0.018 0 0.028 0 0.448 0 0.814-0.355 0.832-0.799l0-0.002v-14.4c-0.018-0.446-0.383-0.8-0.832-0.8-0.010 0-0.020 0-0.030 0.001l0.001-0h-22.78c-0.008-0-0.018-0-0.028-0-0.449 0-0.814 0.355-0.832 0.799l-0 0.002v1.2c0 0.552-0.448 1-1 1s-1-0.448-1-1v0-1.2c0.018-1.55 1.279-2.8 2.832-2.8 0.010 0 0.019 0 0.029 0h22.779c0.008-0 0.018-0 0.028-0 1.553 0 2.814 1.25 2.832 2.798l0 0.002v14.4c-0.018 1.55-1.279 2.8-2.832 2.8-0.010 0-0.019-0-0.029-0h0.001z"></path>
<path d="M16 20.25c-0.003 0-0.006 0-0.010 0-0.806 0-1.536-0.328-2.063-0.857l-10.913-10.913c-0.181-0.181-0.293-0.431-0.293-0.707 0-0.553 0.448-1.001 1.001-1.001 0.276 0 0.526 0.112 0.708 0.293l10.913 10.912c0.171 0.163 0.402 0.263 0.657 0.263s0.487-0.1 0.658-0.264l-0 0 10.912-10.912c0.181-0.181 0.431-0.293 0.707-0.293 0.553 0 1.001 0.448 1.001 1.001 0 0.276-0.112 0.526-0.293 0.708l-10.913 10.912c-0.527 0.53-1.257 0.858-2.063 0.858-0.003 0-0.007 0-0.010-0h0.001z"></path>
<path d="M1.75 13.5c0 0.552 0.448 1 1 1s1-0.448 1-1v0c0-0.552-0.448-1-1-1s-1 0.448-1 1v0z"></path>
</symbol>
<symbol id="icon-old-phone" viewBox="0 0 32 32">
<path d="M27.61 19.605c-0.154-1.067-0.978-1.899-2.038-2.147-4.123-0.966-5.157-3.341-5.331-5.974-0.731-0.136-2.032-0.283-4.24-0.283s-3.509 0.147-4.24 0.283c-0.174 2.634-1.208 5.008-5.331 5.974-1.061 0.25-1.885 1.080-2.038 2.147l-0.795 5.507c-0.28 1.939 1.144 3.688 3.125 3.688h18.56c1.979 0 3.405-1.749 3.125-3.688l-0.795-5.507zM16 24.787c-2.232 0-4.042-1.792-4.042-4s1.81-4 4.042-4 4.042 1.792 4.042 4-1.811 4-4.042 4zM31.92 9.6c-0.038-2.4-6.147-6.398-15.92-6.4-9.774 0.002-15.883 4-15.92 6.4s0.034 5.523 4.056 5.003c4.706-0.61 4.416-2.253 4.416-4.602 0-1.638 3.827-2.034 7.448-2.034s7.446 0.395 7.448 2.034c0 2.349-0.29 3.992 4.416 4.602 4.021 0.52 4.093-2.603 4.056-5.003z"></path>
</symbol>
<symbol id="icon-circle-down" viewBox="0 0 32 32">
<path d="M32 16c0-8.837-7.163-16-16-16s-16 7.163-16 16 7.163 16 16 16 16-7.163 16-16zM3 16c0-7.18 5.82-13 13-13s13 5.82 13 13-5.82 13-13 13-13-5.82-13-13z"></path>
<path d="M9.914 11.086l-2.829 2.829 8.914 8.914 8.914-8.914-2.828-2.828-6.086 6.086z"></path>
</symbol>
</defs>
</svg>
